<?xml version="1.0" standalone="no"?>
<!DOCTYPE svg PUBLIC "-//W3C//DTD SVG 20010904//EN"
 "http://www.w3.org/TR/2001/REC-SVG-20010904/DTD/svg10.dtd">
<svg version="1.0" xmlns="http://www.w3.org/2000/svg"
 width="257.000000pt" height="80.000000pt" viewBox="0 0 257.000000 80.000000"
 preserveAspectRatio="xMidYMid meet">

<g transform="translate(0.000000,80.000000) scale(0.100000,-0.100000)"
fill="#000000" stroke="none">
<path d="M0 732 l0 -70 159 -4 c143 -3 163 -5 187 -24 33 -24 44 -57 32 -101
-14 -54 -45 -63 -223 -63 l-155 0 0 -235 0 -235 75 0 75 0 0 160 0 160 44 0
44 0 73 -160 74 -160 78 0 c42 0 77 4 77 9 0 5 -34 83 -75 173 -42 89 -71 164
-66 166 5 2 28 17 51 33 54 40 81 100 81 182 0 106 -35 166 -120 206 -53 24
-67 26 -233 29 l-178 4 0 -70z"/>
<path d="M575 787 c-3 -6 -4 -185 -3 -397 l3 -385 188 -3 187 -2 0 75 0 75
-115 0 -115 0 0 90 0 90 165 0 165 0 0 70 0 70 -162 2 -163 3 0 90 0 90 113 3
112 3 0 69 0 70 -185 0 c-140 0 -187 -3 -190 -13z"/>
<path d="M1170 470 l0 -330 -45 0 -45 0 0 -70 0 -70 165 0 166 0 -3 68 -3 67
-42 3 -43 3 0 330 0 329 -75 0 -75 0 0 -330z"/>
<path d="M1430 400 l0 -400 75 0 75 0 0 165 0 165 160 0 160 0 0 70 0 70 -160
0 -160 0 0 95 0 95 115 0 115 0 0 70 0 70 -190 0 -190 0 0 -400z"/>
<path d="M1930 795 c0 -3 68 -101 150 -216 l150 -211 0 -184 0 -185 73 3 72 3
3 189 2 189 86 120 c47 66 88 126 91 134 4 10 -13 13 -81 13 l-85 0 -42 -55
c-23 -30 -45 -55 -50 -55 -4 0 -50 59 -100 130 l-92 130 -89 0 c-48 0 -88 -2
-88 -5z"/>
</g>
</svg>
<!DOCTYPE svg PUBLIC "-//W3C//DTD SVG 20010904//EN"
 "http://www.w3.org/TR/2001/REC-SVG-20010904/DTD/svg10.dtd">
<svg version="1.0" xmlns="http://www.w3.org/2000/svg"
 width="257.000000pt" height="80.000000pt" viewBox="0 0 257.000000 80.000000"
 preserveAspectRatio="xMidYMid meet">

<g transform="translate(0.000000,80.000000) scale(0.100000,-0.100000)"
fill="#000000" stroke="none">
<path d="M0 732 l0 -70 159 -4 c143 -3 163 -5 187 -24 33 -24 44 -57 32 -101
-14 -54 -45 -63 -223 -63 l-155 0 0 -235 0 -235 75 0 75 0 0 160 0 160 44 0
44 0 73 -160 74 -160 78 0 c42 0 77 4 77 9 0 5 -34 83 -75 173 -42 89 -71 164
-66 166 5 2 28 17 51 33 54 40 81 100 81 182 0 106 -35 166 -120 206 -53 24
-67 26 -233 29 l-178 4 0 -70z"/>
<path d="M575 787 c-3 -6 -4 -185 -3 -397 l3 -385 188 -3 187 -2 0 75 0 75
-115 0 -115 0 0 90 0 90 165 0 165 0 0 70 0 70 -162 2 -163 3 0 90 0 90 113 3
112 3 0 69 0 70 -185 0 c-140 0 -187 -3 -190 -13z"/>
<path d="M1170 470 l0 -330 -45 0 -45 0 0 -70 0 -70 165 0 166 0 -3 68 -3 67
-42 3 -43 3 0 330 0 329 -75 0 -75 0 0 -330z"/>
<path d="M1430 400 l0 -400 75 0 75 0 0 165 0 165 160 0 160 0 0 70 0 70 -160
0 -160 0 0 95 0 95 115 0 115 0 0 70 0 70 -190 0 -190 0 0 -400z"/>
<path d="M1930 795 c0 -3 68 -101 150 -216 l150 -211 0 -184 0 -185 73 3 72 3
3 189 2 189 86 120 c47 66 88 126 91 134 4 10 -13 13 -81 13 l-85 0 -42 -55
c-23 -30 -45 -55 -50 -55 -4 0 -50 59 -100 130 l-92 130 -89 0 c-48 0 -88 -2
-88 -5z"/>
</g>
</svg>
